<svg width="1381" height="107" viewBox="0 0 1381 107" fill="none" xmlns="http://www.w3.org/2000/svg">
<g filter="url(#filter0_d_625_344)">
<path d="M7.7257 3.08857L1376.91 0.918417L1376.92 95.53C1376.92 95.53 1170.25 83.7336 887.216 83.7214C604.185 83.7092 471.778 107.278 215.56 95.4799C-40.6583 83.6815 7.73181 55.4556 7.73181 55.4556L7.7257 3.08857Z" fill="#5A713D"/>
<path d="M7.98464 55.8877L7.98514 55.8874L8.23185 55.7435L8.23181 55.457L8.22576 3.58778L1376.41 1.41921L1376.42 95.0011L1376.34 94.9969C1375.94 94.9746 1375.34 94.9414 1374.55 94.8982C1372.97 94.8118 1370.61 94.685 1367.51 94.5237C1361.3 94.2011 1352.12 93.7402 1340.22 93.1871C1316.42 92.0809 1281.74 90.6059 1238.22 89.1306C1151.17 86.1798 1028.74 83.2275 887.215 83.2214C766.569 83.2162 673.287 87.4955 586.13 91.4937C571.043 92.1858 556.14 92.8695 541.31 93.521C440.808 97.9367 343.669 100.879 215.581 94.9805C151.535 92.0312 106.535 88.0558 75.061 83.7533C43.5775 79.4494 25.6605 74.822 15.7597 70.5838C10.8073 68.4638 7.90266 66.4585 6.30427 64.6755C4.72163 62.91 4.43258 61.3814 4.66563 60.1441C4.90482 58.8743 5.71199 57.8137 6.50091 57.0516C6.89119 56.6745 7.26635 56.3808 7.54334 56.1819C7.68156 56.0826 7.79457 56.0075 7.8718 55.9579C7.91039 55.9331 7.93999 55.9148 7.95925 55.903L7.98021 55.8903L7.98456 55.8877L7.98464 55.8877Z" stroke="black"/>
</g>
<defs>
<filter id="filter0_d_625_344" x="0.0942383" y="0.918457" width="1380.82" height="105.868" filterUnits="userSpaceOnUse" color-interpolation-filters="sRGB">
<feFlood flood-opacity="0" result="BackgroundImageFix"/>
<feColorMatrix in="SourceAlpha" type="matrix" values="0 0 0 0 0 0 0 0 0 0 0 0 0 0 0 0 0 0 127 0" result="hardAlpha"/>
<feOffset dy="4"/>
<feGaussianBlur stdDeviation="2"/>
<feComposite in2="hardAlpha" operator="out"/>
<feColorMatrix type="matrix" values="0 0 0 0 0 0 0 0 0 0 0 0 0 0 0 0 0 0 0.25 0"/>
<feBlend mode="normal" in2="BackgroundImageFix" result="effect1_dropShadow_625_344"/>
<feBlend mode="normal" in="SourceGraphic" in2="effect1_dropShadow_625_344" result="shape"/>
</filter>
</defs>
</svg>
