<svg width="1293" height="105" viewBox="0 0 1293 105" fill="none" xmlns="http://www.w3.org/2000/svg">
<g filter="url(#filter0_d_625_343)">
<path d="M7.63453 2.03037L1288.58 6.69327e-05L1288.61 93.3433C1288.61 93.3433 1095.26 81.6883 830.468 81.6534C565.676 81.6185 441.806 104.861 202.096 93.2C-37.6135 81.5389 7.65198 53.6954 7.65198 53.6954L7.63453 2.03037Z" fill="#5A713D"/>
<path d="M7.91481 54.1215L7.91489 54.1214L7.91536 54.1211L8.15207 53.9755L8.15198 53.6966L8.13471 2.52958L1288.08 0.500858L1288.11 92.8127L1288.08 92.8107L1287.73 92.7904C1287.39 92.7701 1286.95 92.7443 1286.41 92.7132C1284.92 92.6278 1282.72 92.5026 1279.82 92.3431C1274.01 92.0243 1265.42 91.5689 1254.29 91.0222C1232.02 89.9289 1199.58 88.4709 1158.86 87.0118C1077.41 84.0935 962.87 81.1709 830.467 81.1534C717.594 81.1385 630.323 85.3529 548.783 89.2905C534.668 89.9721 520.726 90.6454 506.852 91.287C412.828 95.6353 321.951 98.53 202.119 92.7006C142.2 89.7857 100.101 85.8601 70.6568 81.613C41.2027 77.3645 24.4451 72.7986 15.1876 68.6192C10.5578 66.529 7.84426 64.5531 6.35119 62.797C4.87248 61.0577 4.59773 59.5461 4.81695 58.3173C5.04115 57.0605 5.79731 56.0144 6.5325 55.2653C6.89667 54.8942 7.24662 54.6053 7.50474 54.4098C7.63355 54.3123 7.73879 54.2385 7.81057 54.1899C7.84645 54.1656 7.87391 54.1476 7.89171 54.1362L7.91099 54.1239L7.91481 54.1215Z" stroke="black"/>
</g>
<defs>
<filter id="filter0_d_625_343" x="0.25" y="0" width="1292.36" height="104.474" filterUnits="userSpaceOnUse" color-interpolation-filters="sRGB">
<feFlood flood-opacity="0" result="BackgroundImageFix"/>
<feColorMatrix in="SourceAlpha" type="matrix" values="0 0 0 0 0 0 0 0 0 0 0 0 0 0 0 0 0 0 127 0" result="hardAlpha"/>
<feOffset dy="4"/>
<feGaussianBlur stdDeviation="2"/>
<feComposite in2="hardAlpha" operator="out"/>
<feColorMatrix type="matrix" values="0 0 0 0 0 0 0 0 0 0 0 0 0 0 0 0 0 0 0.25 0"/>
<feBlend mode="normal" in2="BackgroundImageFix" result="effect1_dropShadow_625_343"/>
<feBlend mode="normal" in="SourceGraphic" in2="effect1_dropShadow_625_343" result="shape"/>
</filter>
</defs>
</svg>
