<?xml version="1.0" standalone="no"?>
<svg xmlns:xlink="http://www.w3.org/1999/xlink" id="wave" style="transform:rotate(180deg); transition: 0.3s" viewBox="0 0 1440 100" version="1.1" xmlns="http://www.w3.org/2000/svg"><defs><linearGradient id="sw-gradient-0" x1="0" x2="0" y1="1" y2="0"><stop stop-color="rgba(90, 113, 61, 1)" offset="0%"/><stop stop-color="rgba(90, 113, 61, 1)" offset="100%"/></linearGradient></defs><path style="transform:translate(0, 0px); opacity:1" fill="url(#sw-gradient-0)" d="M0,30L80,35C160,40,320,50,480,48.3C640,47,800,33,960,25C1120,17,1280,13,1440,16.7C1600,20,1760,30,1920,33.3C2080,37,2240,33,2400,35C2560,37,2720,43,2880,51.7C3040,60,3200,70,3360,73.3C3520,77,3680,73,3840,61.7C4000,50,4160,30,4320,25C4480,20,4640,30,4800,30C4960,30,5120,20,5280,28.3C5440,37,5600,63,5760,65C5920,67,6080,43,6240,31.7C6400,20,6560,20,6720,21.7C6880,23,7040,27,7200,30C7360,33,7520,37,7680,33.3C7840,30,8000,20,8160,25C8320,30,8480,50,8640,60C8800,70,8960,70,9120,61.7C9280,53,9440,37,9600,33.3C9760,30,9920,40,10080,36.7C10240,33,10400,17,10560,15C10720,13,10880,27,11040,40C11200,53,11360,67,11440,73.3L11520,80L11520,100L11440,100C11360,100,11200,100,11040,100C10880,100,10720,100,10560,100C10400,100,10240,100,10080,100C9920,100,9760,100,9600,100C9440,100,9280,100,9120,100C8960,100,8800,100,8640,100C8480,100,8320,100,8160,100C8000,100,7840,100,7680,100C7520,100,7360,100,7200,100C7040,100,6880,100,6720,100C6560,100,6400,100,6240,100C6080,100,5920,100,5760,100C5600,100,5440,100,5280,100C5120,100,4960,100,4800,100C4640,100,4480,100,4320,100C4160,100,4000,100,3840,100C3680,100,3520,100,3360,100C3200,100,3040,100,2880,100C2720,100,2560,100,2400,100C2240,100,2080,100,1920,100C1760,100,1600,100,1440,100C1280,100,1120,100,960,100C800,100,640,100,480,100C320,100,160,100,80,100L0,100Z"/></svg>