<?xml version="1.0" standalone="no"?>
<svg xmlns:xlink="http://www.w3.org/1999/xlink" id="wave" style="transform:rotate(180deg); transition: 0.3s" viewBox="0 0 1440 210" version="1.1" xmlns="http://www.w3.org/2000/svg"><defs><linearGradient id="sw-gradient-0" x1="0" x2="0" y1="1" y2="0"><stop stop-color="rgba(90, 113, 61, 1)" offset="0%"/><stop stop-color="rgba(90, 113, 61, 1)" offset="100%"/></linearGradient></defs><path style="transform:translate(0, 0px); opacity:1" fill="url(#sw-gradient-0)" d="M0,63L80,73.5C160,84,320,105,480,101.5C640,98,800,70,960,52.5C1120,35,1280,28,1440,35C1600,42,1760,63,1920,70C2080,77,2240,70,2400,73.5C2560,77,2720,91,2880,108.5C3040,126,3200,147,3360,154C3520,161,3680,154,3840,129.5C4000,105,4160,63,4320,52.5C4480,42,4640,63,4800,63C4960,63,5120,42,5280,59.5C5440,77,5600,133,5760,136.5C5920,140,6080,91,6240,66.5C6400,42,6560,42,6720,45.5C6880,49,7040,56,7200,63C7360,70,7520,77,7680,70C7840,63,8000,42,8160,52.5C8320,63,8480,105,8640,126C8800,147,8960,147,9120,129.5C9280,112,9440,77,9600,70C9760,63,9920,84,10080,77C10240,70,10400,35,10560,31.5C10720,28,10880,56,11040,84C11200,112,11360,140,11440,154L11520,168L11520,210L11440,210C11360,210,11200,210,11040,210C10880,210,10720,210,10560,210C10400,210,10240,210,10080,210C9920,210,9760,210,9600,210C9440,210,9280,210,9120,210C8960,210,8800,210,8640,210C8480,210,8320,210,8160,210C8000,210,7840,210,7680,210C7520,210,7360,210,7200,210C7040,210,6880,210,6720,210C6560,210,6400,210,6240,210C6080,210,5920,210,5760,210C5600,210,5440,210,5280,210C5120,210,4960,210,4800,210C4640,210,4480,210,4320,210C4160,210,4000,210,3840,210C3680,210,3520,210,3360,210C3200,210,3040,210,2880,210C2720,210,2560,210,2400,210C2240,210,2080,210,1920,210C1760,210,1600,210,1440,210C1280,210,1120,210,960,210C800,210,640,210,480,210C320,210,160,210,80,210L0,210Z"/></svg>