<svg width="1422" height="107" viewBox="0 0 1422 107" fill="none" xmlns="http://www.w3.org/2000/svg">
<g filter="url(#filter0_d_625_343)">
<path d="M7.99947 3.08857L1417.57 0.918417L1417.58 95.53C1417.58 95.53 1204.81 83.7336 913.431 83.7214C622.052 83.7092 485.739 107.278 221.964 95.4799C-41.8117 83.6815 8.00576 55.4556 8.00576 55.4556L7.99947 3.08857Z" fill="#5A713D"/>
<path d="M8.25322 55.8908L8.2537 55.8906L8.5058 55.7477L8.50576 55.4571L8.49953 3.5878L1417.07 1.41918L1417.08 95.002L1416.98 94.9969C1416.57 94.9745 1415.96 94.9414 1415.14 94.8982C1413.51 94.8118 1411.08 94.685 1407.89 94.5237C1401.5 94.2011 1392.05 93.7402 1379.8 93.1871C1355.3 92.0809 1319.6 90.6059 1274.79 89.1305C1185.17 86.1798 1059.13 83.2275 913.43 83.2214C789.227 83.2162 693.194 87.4954 603.466 91.4937C587.934 92.1857 572.591 92.8694 557.323 93.521C453.857 97.9367 353.851 100.879 221.985 94.9804C156.049 92.0312 109.72 88.0557 77.3169 83.753C44.9041 79.449 26.4558 74.8213 16.2598 70.5818C11.1594 68.461 8.16695 66.4545 6.52023 64.6701C4.88994 62.9036 4.59539 61.3781 4.83415 60.1469C5.07976 58.8803 5.90944 57.8201 6.72308 57.0566C7.12527 56.6792 7.51195 56.3851 7.79758 56.1858C7.9401 56.0864 8.05668 56.0111 8.13641 55.9614C8.17625 55.9366 8.20683 55.9181 8.22677 55.9063L8.24851 55.8935L8.25306 55.8909L8.25322 55.8908Z" stroke="black"/>
</g>
<defs>
<filter id="filter0_d_625_343" x="0.26123" y="0.918457" width="1421.32" height="105.868" filterUnits="userSpaceOnUse" color-interpolation-filters="sRGB">
<feFlood flood-opacity="0" result="BackgroundImageFix"/>
<feColorMatrix in="SourceAlpha" type="matrix" values="0 0 0 0 0 0 0 0 0 0 0 0 0 0 0 0 0 0 127 0" result="hardAlpha"/>
<feOffset dy="4"/>
<feGaussianBlur stdDeviation="2"/>
<feComposite in2="hardAlpha" operator="out"/>
<feColorMatrix type="matrix" values="0 0 0 0 0 0 0 0 0 0 0 0 0 0 0 0 0 0 0.25 0"/>
<feBlend mode="normal" in2="BackgroundImageFix" result="effect1_dropShadow_625_343"/>
<feBlend mode="normal" in="SourceGraphic" in2="effect1_dropShadow_625_343" result="shape"/>
</filter>
</defs>
</svg>
