<svg width="1278" height="126" viewBox="0 0 1278 126" fill="none" xmlns="http://www.w3.org/2000/svg">
<g filter="url(#filter0_d_902_345)">
<path d="M7.59282 3.33904L1273.84 9.4616e-06L1273.76 112.695C1273.76 112.695 1082.64 98.7578 820.888 98.8992C559.136 99.0406 436.661 127.188 199.717 113.275C-37.2275 99.3626 7.55048 65.7152 7.55048 65.7152L7.59282 3.33904Z" fill="#5A713D"/>
<path d="M7.85085 66.1149L7.85098 66.1148L7.85141 66.1145L8.05031 65.9651L8.05048 65.7156L8.09248 3.83772L1273.34 0.501331L1273.26 112.158L1273.24 112.156C1272.87 112.13 1272.32 112.091 1271.59 112.04C1270.12 111.938 1267.94 111.788 1265.07 111.598C1259.33 111.217 1250.84 110.673 1239.84 110.02C1217.83 108.716 1185.76 106.978 1145.5 105.245C1065 101.778 951.773 98.3285 820.888 98.3992C709.308 98.4594 623.031 103.608 542.423 108.419C528.47 109.251 514.686 110.074 500.971 110.858C408.024 116.173 318.191 119.731 199.746 112.776C140.521 109.298 98.9131 104.588 69.8164 99.4821C40.7096 94.3739 24.159 88.8749 15.0209 83.84C5.87658 78.8018 4.301 74.323 4.75087 71.2627C4.98138 69.6947 5.75058 68.4073 6.47888 67.5015C6.8415 67.0505 7.18924 66.7001 7.44496 66.4635C7.57265 66.3454 7.67689 66.2562 7.74792 66.1975C7.78341 66.1681 7.81057 66.1464 7.82814 66.1326L7.84715 66.1178L7.85085 66.1149Z" stroke="black"/>
</g>
<defs>
<filter id="filter0_d_902_345" x="0.181641" y="0" width="1277.66" height="125.136" filterUnits="userSpaceOnUse" color-interpolation-filters="sRGB">
<feFlood flood-opacity="0" result="BackgroundImageFix"/>
<feColorMatrix in="SourceAlpha" type="matrix" values="0 0 0 0 0 0 0 0 0 0 0 0 0 0 0 0 0 0 127 0" result="hardAlpha"/>
<feOffset dy="4"/>
<feGaussianBlur stdDeviation="2"/>
<feComposite in2="hardAlpha" operator="out"/>
<feColorMatrix type="matrix" values="0 0 0 0 0 0 0 0 0 0 0 0 0 0 0 0 0 0 0.25 0"/>
<feBlend mode="normal" in2="BackgroundImageFix" result="effect1_dropShadow_902_345"/>
<feBlend mode="normal" in="SourceGraphic" in2="effect1_dropShadow_902_345" result="shape"/>
</filter>
</defs>
</svg>
