<svg width="1374" height="106" viewBox="0 0 1374 106" fill="none" xmlns="http://www.w3.org/2000/svg">
<g filter="url(#filter0_d_625_344)">
<path d="M4.76773 2.57018L684.5 2.57018L1369.58 0.000305708L1369.59 94.1878C1369.59 94.1878 1164.56 82.4447 883.76 82.4329C602.964 82.4212 447.317 105.847 217.409 94.1398C-12.5 82.4328 4.76723 53.3417 4.76723 53.3417L4.76773 2.57018Z" fill="#5A713D"/>
<path d="M5.1996 53.594L5.20033 53.5928L5.26723 53.4801L5.26723 53.3431L5.26773 3.07018L684.501 3.07018L684.503 3.07018L1369.08 0.502186L1369.09 93.6589L1369.02 93.6549C1368.63 93.6327 1368.03 93.5997 1367.25 93.5567C1365.68 93.4707 1363.34 93.3445 1360.26 93.1839C1354.1 92.8627 1345 92.4039 1333.19 91.8533C1309.58 90.7521 1275.17 89.2838 1231.99 87.8151C1145.63 84.8777 1024.16 81.9388 883.759 81.933C763.006 81.9279 665.393 86.2568 575.077 90.2621C560.374 90.9142 545.864 91.5577 531.479 92.1725C428.733 96.5639 332.363 99.4927 217.433 93.6404C102.482 87.7871 49.3864 77.5893 25.0394 68.8799C12.8553 64.5214 7.95636 60.5644 6.07513 57.7903C5.14287 56.4156 4.9542 55.3357 4.97412 54.6301C4.98419 54.2737 5.04774 54.0028 5.1049 53.8273C5.13351 53.7395 5.16056 53.6755 5.17853 53.6367C5.18752 53.6173 5.19422 53.6042 5.19768 53.5976C5.19853 53.596 5.19915 53.5948 5.1996 53.594Z" stroke="#5A713D"/>
</g>
<defs>
<filter id="filter0_d_625_344" x="0.472656" y="0.000244141" width="1373.12" height="105.416" filterUnits="userSpaceOnUse" color-interpolation-filters="sRGB">
<feFlood flood-opacity="0" result="BackgroundImageFix"/>
<feColorMatrix in="SourceAlpha" type="matrix" values="0 0 0 0 0 0 0 0 0 0 0 0 0 0 0 0 0 0 127 0" result="hardAlpha"/>
<feOffset dy="4"/>
<feGaussianBlur stdDeviation="2"/>
<feComposite in2="hardAlpha" operator="out"/>
<feColorMatrix type="matrix" values="0 0 0 0 0 0 0 0 0 0 0 0 0 0 0 0 0 0 0.25 0"/>
<feBlend mode="normal" in2="BackgroundImageFix" result="effect1_dropShadow_625_344"/>
<feBlend mode="normal" in="SourceGraphic" in2="effect1_dropShadow_625_344" result="shape"/>
</filter>
</defs>
</svg>
