<svg width="1512" height="179" viewBox="0 0 1512 179" fill="none" xmlns="http://www.w3.org/2000/svg">
<g filter="url(#filter0_d_587_350)">
<path d="M-3.7007 -13.0044L1511.54 -17L1511.57 164.679C1511.57 164.679 1282.85 142.001 969.626 141.942C656.403 141.883 509.876 187.125 226.323 164.437C-57.2292 141.749 -3.68302 87.5539 -3.68302 87.5539L-3.7007 -13.0044Z" fill="#5A713D"/>
<path d="M-3.32734 87.9054L-3.32697 87.905L-3.18298 87.7592L-3.18302 87.5538L-3.20062 -12.5057L1511.04 -16.4987L1511.07 164.127L1510.95 164.116C1510.51 164.073 1509.85 164.009 1508.97 163.926C1507.22 163.76 1504.61 163.516 1501.17 163.206C1494.31 162.586 1484.15 161.7 1470.98 160.636C1444.64 158.509 1406.26 155.672 1358.09 152.833C1261.75 147.156 1126.25 141.471 969.626 141.442C836.103 141.417 732.864 149.623 636.41 157.29C619.714 158.617 603.221 159.928 586.81 161.177C475.592 169.643 368.102 175.28 226.363 163.939C155.489 158.268 105.697 150.629 70.8765 142.366C36.0463 134.1 16.2341 125.218 5.28608 117.086C-5.64263 108.968 -7.68728 101.642 -7.12202 96.4303C-6.83701 93.8022 -5.88471 91.6653 -5.00061 90.1831C-4.55896 89.4426 -4.13593 88.8683 -3.82517 88.481C-3.66987 88.2875 -3.54284 88.141 -3.45588 88.0441C-3.4124 87.9956 -3.37897 87.9596 -3.35705 87.9364L-3.33299 87.9112L-3.3278 87.9058L-3.32734 87.9054Z" stroke="black"/>
</g>
<defs>
<filter id="filter0_d_587_350" x="-11.7073" y="-17" width="1527.28" height="195.804" filterUnits="userSpaceOnUse" color-interpolation-filters="sRGB">
<feFlood flood-opacity="0" result="BackgroundImageFix"/>
<feColorMatrix in="SourceAlpha" type="matrix" values="0 0 0 0 0 0 0 0 0 0 0 0 0 0 0 0 0 0 127 0" result="hardAlpha"/>
<feOffset dy="4"/>
<feGaussianBlur stdDeviation="2"/>
<feComposite in2="hardAlpha" operator="out"/>
<feColorMatrix type="matrix" values="0 0 0 0 0 0 0 0 0 0 0 0 0 0 0 0 0 0 0.25 0"/>
<feBlend mode="normal" in2="BackgroundImageFix" result="effect1_dropShadow_587_350"/>
<feBlend mode="normal" in="SourceGraphic" in2="effect1_dropShadow_587_350" result="shape"/>
</filter>
</defs>
</svg>
